<svg id="BACKMARKET_HORIZONTAL_LOGOTYPE" version="1.1" viewBox="0 0 219.28 200" xmlns="http://www.w3.org/2000/svg">
 <path d="m201.75 0h-184.22c-9.6867 0-17.53 7.8193-17.53 17.482v165.04c0 9.6626 7.8434 17.482 17.53 17.482h184.22c9.6747 0 17.53-7.8313 17.53-17.482v-165.04c0-9.6506-7.8434-17.482-17.53-17.482zm-82.301 160.2h-36.157c-1.1566 0-2.253-0.45783-3.0723-1.2771l-57.88-57.88c-0.71084-0.71084-0.71084-1.8675 0-2.5904l57.88-57.88c0.81928-0.81928 1.9157-1.2771 3.0723-1.2771h36.157c0.98795 0 1.4819 1.1928 0.78314 1.8795l-57.277 57.277c-0.71084 0.71084-0.71084 1.8675 0 2.5904l57.277 57.277c0.69879 0.6988 0.20481 1.8795-0.78314 1.8795zm19.325-59.157 57.277 57.277c0.6988 0.6988 0.20482 1.8795-0.78313 1.8795h-36.157c-1.1566 0-2.253-0.45783-3.0723-1.2771l-57.88-57.892c-0.71084-0.71084-0.71084-1.8675 0-2.5904l57.88-57.88c0.81928-0.81928 1.9157-1.2771 3.0723-1.2771h36.157c0.98795 0 1.4819 1.1928 0.78313 1.8795l-57.277 57.277c-0.71084 0.71084-0.71084 1.8675 0 2.5904z" stroke-width="1.2048"/>
</svg>
