<svg id="BACKMARKET_HORIZONTAL_LOGOTYPE" version="1.1" viewBox="0 0 182 166" xmlns="http://www.w3.org/2000/svg">
 <path d="m167.45 0h-152.9c-8.04 0-14.55 6.49-14.55 14.51v136.98c0 8.02 6.51 14.51 14.55 14.51h152.9c8.03 0 14.55-6.5 14.55-14.51v-136.98c0-8.01-6.51-14.51-14.55-14.51zm-68.31 132.97h-30.01c-0.96 0-1.87-0.38-2.55-1.06l-48.04-48.04c-0.59-0.59-0.59-1.55 0-2.15l48.04-48.04c0.68-0.68 1.59-1.06 2.55-1.06h30.01c0.82 0 1.23 0.99 0.65 1.56l-47.54 47.54c-0.59 0.59-0.59 1.55 0 2.15l47.54 47.54c0.58 0.58 0.17 1.56-0.65 1.56zm16.04-49.1 47.54 47.54c0.58 0.58 0.17 1.56-0.65 1.56h-30.01c-0.96 0-1.87-0.38-2.55-1.06l-48.04-48.05c-0.59-0.59-0.59-1.55 0-2.15l48.04-48.04c0.68-0.68 1.59-1.06 2.55-1.06h30.01c0.82 0 1.23 0.99 0.65 1.56l-47.54 47.54c-0.59 0.59-0.59 1.55 0 2.15z"/>
</svg>
